<svg data-v-d3f97b9e="" xmlns="http://www.w3.org/2000/svg" viewBox="0 0 40.67699269056735 60"><!----><!----><!----><!----><g data-v-d3f97b9e="" id="a7b32d0d-25d8-411c-8188-b8d73c4777f5" transform="matrix(0.6682909727096558,0,0,0.6682909727096558,-13.076051712036133,-3.414548635482788)" stroke="none" fill="black"><path d="M49.898 40.806L70.277 94.89V43.793l-20.379-2.987zM45.559 43.479L59.12 78.524 38.245 64.516l-4.87-19.332 12.184-1.705m1.265-2.153l-15.879 2.223 5.585 22.172 26.655 17.888-16.361-42.283zM70.29 5.109l-20.289 5.869-20.29-5.869L19.566 22.68l10.145 17.57L50 37.642l20.29 2.608 10.144-17.57L70.29 5.109zm-1.848 26.283l-9.973-.896-2.24-3.521 1.114-1.725 2.199 3.472 7.882.708 3.897-6.75-3.866-6.696-7.899 1.456L50 35.399l-9.557-17.96-7.899-1.455-3.865 6.696 3.896 6.75 7.883-.708 2.215-3.458 1.111 1.712-2.255 3.521-9.973.896-5.028-8.712 5.06-8.766 9.938 1.831L50 31.541l8.474-15.796 9.938-1.831 5.062 8.766-5.032 8.712zm-8.936-8.223l1.88-3.041 4.066-.393 1.984 3.434-1.984 3.434-3.965-.279-1.981-3.155zm-19.01 0l-1.984 3.154-3.964.279-1.982-3.434 1.982-3.434 3.863.393 2.085 3.042z"></path></g><!----></svg>