<svg data-v-d3f97b9e="" xmlns="http://www.w3.org/2000/svg" viewBox="0 0 458 90"><!----><!----><!----><g data-v-d3f97b9e="" id="78dc6ca3-c264-4453-bb29-53db5ddc1e4f" fill="white" transform="matrix(4.761314392089844,0,0,4.761314392089844,73.72471618652344,-19.99380111694336)"><path d="M1.67 14L1.67 14Q1.53 14 1.53 13.86L1.53 13.86L1.53 4.34L1.53 4.34Q1.53 4.20 1.67 4.20L1.67 4.20L1.93 4.20L1.93 4.20Q2.07 4.20 2.07 4.34L2.07 4.34L2.07 9.44L2.07 9.44Q2.07 9.46 2.09 9.48L2.09 9.48L2.09 9.48Q2.11 9.49 2.14 9.46L2.14 9.46L7.10 4.27L7.10 4.27Q7.17 4.20 7.27 4.20L7.27 4.20L7.56 4.20L7.56 4.20Q7.64 4.20 7.67 4.25L7.67 4.25L7.67 4.25Q7.70 4.30 7.64 4.37L7.64 4.37L4.09 8.19L4.09 8.19Q4.06 8.22 4.09 8.27L4.09 8.27L7.98 13.83L7.98 13.83Q8.01 13.86 8.01 13.92L8.01 13.92L8.01 13.92Q8.01 13.94 7.98 13.97L7.98 13.97L7.98 13.97Q7.95 14 7.90 14L7.90 14L7.56 14L7.56 14Q7.45 14 7.39 13.92L7.39 13.92L3.71 8.68L3.71 8.68Q3.70 8.65 3.67 8.65L3.67 8.65L3.67 8.65Q3.64 8.65 3.63 8.67L3.63 8.67L2.10 10.21L2.10 10.21Q2.07 10.23 2.07 10.28L2.07 10.28L2.07 13.86L2.07 13.86Q2.07 14 1.93 14L1.93 14L1.67 14ZM12.00 6.86L12.00 6.86Q13.20 6.86 13.81 7.48L13.81 7.48L13.81 7.48Q14.42 8.11 14.42 9.20L14.42 9.20L14.42 13.86L14.42 13.86Q14.42 14 14.28 14L14.28 14L14.01 14L14.01 14Q13.87 14 13.87 13.86L13.87 13.86L13.87 13.19L13.87 13.19Q13.87 13.16 13.85 13.15L13.85 13.15L13.85 13.15Q13.83 13.13 13.80 13.16L13.80 13.16L13.80 13.16Q13.44 13.62 12.83 13.87L12.83 13.87L12.83 13.87Q12.22 14.11 11.51 14.11L11.51 14.11L11.51 14.11Q10.56 14.11 9.89 13.64L9.89 13.64L9.89 13.64Q9.23 13.16 9.23 12.17L9.23 12.17L9.23 12.17Q9.23 11.14 10.00 10.56L10.00 10.56L10.00 10.56Q10.77 9.97 12.11 9.97L12.11 9.97L13.82 9.97L13.82 9.97Q13.87 9.97 13.87 9.91L13.87 9.91L13.87 9.18L13.87 9.18Q13.87 8.34 13.41 7.85L13.41 7.85L13.41 7.85Q12.95 7.35 11.97 7.35L11.97 7.35L11.97 7.35Q11.21 7.35 10.72 7.67L10.72 7.67L10.72 7.67Q10.23 7.98 10.12 8.51L10.12 8.51L10.12 8.51Q10.08 8.65 9.95 8.64L9.95 8.64L9.66 8.60L9.66 8.60Q9.59 8.58 9.55 8.55L9.55 8.55L9.55 8.55Q9.52 8.51 9.53 8.46L9.53 8.46L9.53 8.46Q9.69 7.73 10.35 7.29L10.35 7.29L10.35 7.29Q11.00 6.86 12.00 6.86L12.00 6.86ZM11.58 13.62L11.58 13.62Q12.52 13.62 13.20 13.17L13.20 13.17L13.20 13.17Q13.87 12.73 13.87 11.91L13.87 11.91L13.87 10.49L13.87 10.49Q13.87 10.43 13.82 10.43L13.82 10.43L12.12 10.43L12.12 10.43Q11.07 10.43 10.42 10.88L10.42 10.88L10.42 10.88Q9.77 11.34 9.77 12.14L9.77 12.14L9.77 12.14Q9.77 12.87 10.28 13.24L10.28 13.24L10.28 13.24Q10.78 13.62 11.58 13.62L11.58 13.62ZM19.29 6.92L19.29 6.92Q19.78 6.92 20.12 7.07L20.12 7.07L20.12 7.07Q20.23 7.11 20.19 7.25L20.19 7.25L20.09 7.53L20.09 7.53Q20.05 7.67 19.92 7.60L19.92 7.60L19.92 7.60Q19.61 7.49 19.22 7.50L19.22 7.50L19.22 7.50Q18.68 7.50 18.24 7.80L18.24 7.80L18.24 7.80Q17.81 8.09 17.56 8.58L17.56 8.58L17.56 8.58Q17.32 9.07 17.32 9.66L17.32 9.66L17.32 13.86L17.32 13.86Q17.32 14 17.18 14L17.18 14L16.91 14L16.91 14Q16.77 14 16.77 13.86L16.77 13.86L16.77 7.11L16.77 7.11Q16.77 6.97 16.91 6.97L16.91 6.97L17.18 6.97L17.18 6.97Q17.32 6.97 17.32 7.11L17.32 7.11L17.32 8.16L17.32 8.16Q17.32 8.20 17.34 8.21L17.34 8.21L17.34 8.21Q17.36 8.22 17.37 8.18L17.37 8.18L17.37 8.18Q17.67 7.59 18.16 7.25L18.16 7.25L18.16 7.25Q18.65 6.92 19.29 6.92L19.29 6.92ZM23.86 14.06L23.86 14.06Q23.13 14.06 22.57 13.82L22.57 13.82L22.57 13.82Q22.01 13.58 21.69 13.17L21.69 13.17L21.69 13.17Q21.38 12.75 21.38 12.26L21.38 12.26L21.38 12.07L21.38 12.07Q21.38 11.93 21.52 11.93L21.52 11.93L21.77 11.93L21.77 11.93Q21.91 11.93 21.91 12.07L21.91 12.07L21.91 12.25L21.91 12.25Q21.91 12.60 22.16 12.91L22.16 12.91L22.16 12.91Q22.40 13.22 22.84 13.40L22.84 13.40L22.84 13.40Q23.28 13.59 23.84 13.59L23.84 13.59L23.84 13.59Q24.68 13.59 25.21 13.20L25.21 13.20L25.21 13.20Q25.73 12.80 25.73 12.17L25.73 12.17L25.73 12.17Q25.73 11.73 25.47 11.47L25.47 11.47L25.47 11.47Q25.20 11.20 24.86 11.07L24.86 11.07L24.86 11.07Q24.51 10.93 23.74 10.68L23.74 10.68L23.74 10.68Q22.99 10.44 22.52 10.23L22.52 10.23L22.52 10.23Q22.05 10.02 21.73 9.66L21.73 9.66L21.73 9.66Q21.42 9.30 21.42 8.74L21.42 8.74L21.42 8.74Q21.42 7.91 22.08 7.41L22.08 7.41L22.08 7.41Q22.74 6.92 23.81 6.92L23.81 6.92L23.81 6.92Q24.91 6.92 25.57 7.43L25.57 7.43L25.57 7.43Q26.24 7.94 26.24 8.72L26.24 8.72L26.24 8.76L26.24 8.76Q26.24 8.90 26.10 8.90L26.10 8.90L25.86 8.90L25.86 8.90Q25.72 8.90 25.72 8.81L25.72 8.81L25.72 8.72L25.72 8.72Q25.72 8.15 25.19 7.76L25.19 7.76L25.19 7.76Q24.67 7.38 23.80 7.38L23.80 7.38L23.80 7.38Q22.96 7.38 22.46 7.75L22.46 7.75L22.46 7.75Q21.95 8.12 21.95 8.71L21.95 8.71L21.95 8.71Q21.95 9.11 22.20 9.37L22.20 9.37L22.20 9.37Q22.44 9.63 22.82 9.79L22.82 9.79L22.82 9.79Q23.20 9.95 23.86 10.16L23.86 10.16L23.86 10.16Q24.68 10.42 25.14 10.61L25.14 10.61L25.14 10.61Q25.61 10.79 25.94 11.16L25.94 11.16L25.94 11.16Q26.28 11.54 26.28 12.14L26.28 12.14L26.28 12.14Q26.28 12.99 25.61 13.52L25.61 13.52L25.61 13.52Q24.95 14.06 23.86 14.06L23.86 14.06ZM31.16 7.31L31.16 7.31Q31.16 7.45 31.02 7.45L31.02 7.45L29.33 7.45L29.33 7.45Q29.27 7.45 29.27 7.50L29.27 7.50L29.27 12.15L29.27 12.15Q29.27 12.91 29.62 13.20L29.62 13.20L29.62 13.20Q29.97 13.50 30.72 13.50L30.72 13.50L31.02 13.50L31.02 13.50Q31.16 13.50 31.16 13.64L31.16 13.64L31.16 13.85L31.16 13.85Q31.16 13.99 31.02 14L31.02 14L30.67 14L30.67 14Q29.74 14 29.24 13.62L29.24 13.62L29.24 13.62Q28.74 13.24 28.74 12.25L28.74 12.25L28.74 7.50L28.74 7.50Q28.74 7.45 28.69 7.45L28.69 7.45L27.83 7.45L27.83 7.45Q27.69 7.45 27.69 7.31L27.69 7.31L27.69 7.11L27.69 7.11Q27.69 6.97 27.83 6.97L27.83 6.97L28.69 6.97L28.69 6.97Q28.74 6.97 28.74 6.92L28.74 6.92L28.74 5.33L28.74 5.33Q28.74 5.19 28.88 5.19L28.88 5.19L29.13 5.19L29.13 5.19Q29.27 5.19 29.27 5.33L29.27 5.33L29.27 6.92L29.27 6.92Q29.27 6.97 29.33 6.97L29.33 6.97L31.02 6.97L31.02 6.97Q31.16 6.97 31.16 7.11L31.16 7.11L31.16 7.31ZM35.84 13.62L35.84 13.62Q36.57 13.62 37.09 13.29L37.09 13.29L37.09 13.29Q37.60 12.95 37.86 12.38L37.86 12.38L37.86 12.38Q37.90 12.25 38.02 12.29L38.02 12.29L38.21 12.35L38.21 12.35Q38.35 12.39 38.30 12.53L38.30 12.53L38.30 12.53Q38.02 13.24 37.37 13.68L37.37 13.68L37.37 13.68Q36.71 14.11 35.81 14.11L35.81 14.11L35.81 14.11Q34.86 14.11 34.20 13.62L34.20 13.62L34.20 13.62Q33.54 13.13 33.29 12.31L33.29 12.31L33.29 12.31Q33.14 11.72 33.14 10.47L33.14 10.47L33.14 10.47Q33.14 9.83 33.16 9.44L33.16 9.44L33.16 9.44Q33.18 9.06 33.25 8.75L33.25 8.75L33.25 8.75Q33.46 7.90 34.14 7.38L34.14 7.38L34.14 7.38Q34.82 6.86 35.80 6.86L35.80 6.86L35.80 6.86Q36.83 6.86 37.52 7.41L37.52 7.41L37.52 7.41Q38.21 7.97 38.39 8.89L38.39 8.89L38.39 8.89Q38.44 9.16 38.46 9.52L38.46 9.52L38.46 9.52Q38.47 9.88 38.47 10.47L38.47 10.47L38.47 10.47Q38.47 10.63 38.33 10.63L38.33 10.63L33.74 10.63L33.74 10.63Q33.68 10.63 33.68 10.68L33.68 10.68L33.68 10.68Q33.68 11.13 33.70 11.49L33.70 11.49L33.70 11.49Q33.71 11.86 33.75 12.03L33.75 12.03L33.75 12.03Q33.89 12.75 34.45 13.19L34.45 13.19L34.45 13.19Q35 13.62 35.84 13.62L35.84 13.62ZM35.80 7.35L35.80 7.35Q34.97 7.35 34.43 7.78L34.43 7.78L34.43 7.78Q33.89 8.22 33.75 8.92L33.75 8.92L33.75 8.92Q33.68 9.37 33.68 10.12L33.68 10.12L33.68 10.12Q33.68 10.18 33.74 10.18L33.74 10.18L37.87 10.18L37.87 10.18Q37.93 10.18 37.93 10.12L37.93 10.12L37.93 10.12Q37.93 9.23 37.86 8.95L37.86 8.95L37.86 8.95Q37.70 8.23 37.16 7.79L37.16 7.79L37.16 7.79Q36.61 7.35 35.80 7.35L35.80 7.35ZM43.43 6.87L43.43 6.87Q44.48 6.87 45.14 7.52L45.14 7.52L45.14 7.52Q45.79 8.18 45.79 9.24L45.79 9.24L45.79 13.86L45.79 13.86Q45.79 14 45.65 14L45.65 14L45.39 14L45.39 14Q45.25 14 45.25 13.86L45.25 13.86L45.25 9.34L45.25 9.34Q45.25 8.47 44.71 7.92L44.71 7.92L44.71 7.92Q44.17 7.36 43.33 7.36L43.33 7.36L43.33 7.36Q42.42 7.36 41.87 7.90L41.87 7.90L41.87 7.90Q41.31 8.44 41.31 9.31L41.31 9.31L41.31 13.86L41.31 13.86Q41.31 14 41.17 14L41.17 14L40.91 14L40.91 14Q40.77 14 40.77 13.86L40.77 13.86L40.77 7.11L40.77 7.11Q40.77 6.97 40.91 6.97L40.91 6.97L41.17 6.97L41.17 6.97Q41.31 6.97 41.31 7.11L41.31 7.11L41.31 7.87L41.31 7.87Q41.31 7.91 41.34 7.92L41.34 7.92L41.34 7.92Q41.36 7.92 41.37 7.90L41.37 7.90L41.37 7.90Q41.68 7.41 42.20 7.14L42.20 7.14L42.20 7.14Q42.73 6.87 43.43 6.87L43.43 6.87ZM51.45 14L51.45 14Q51.31 14 51.31 13.86L51.31 13.86L51.31 4.34L51.31 4.34Q51.31 4.20 51.45 4.20L51.45 4.20L51.72 4.20L51.72 4.20Q51.86 4.20 51.86 4.34L51.86 4.34L51.86 13.45L51.86 13.45Q51.86 13.51 51.91 13.51L51.91 13.51L56.99 13.51L56.99 13.51Q57.13 13.51 57.13 13.65L57.13 13.65L57.13 13.86L57.13 13.86Q57.13 14 56.99 14L56.99 14L51.45 14ZM59.16 14L59.16 14Q59.02 14 59.02 13.86L59.02 13.86L59.02 4.34L59.02 4.34Q59.02 4.20 59.16 4.20L59.16 4.20L59.43 4.20L59.43 4.20Q59.57 4.20 59.57 4.34L59.57 4.34L59.57 13.86L59.57 13.86Q59.57 14 59.43 14L59.43 14L59.16 14ZM64.60 14.11L64.60 14.11Q63.62 14.11 62.94 13.60L62.94 13.60L62.94 13.60Q62.27 13.09 62.05 12.24L62.05 12.24L62.05 12.24Q61.96 11.91 61.94 11.52L61.94 11.52L61.94 11.52Q61.91 11.12 61.91 10.47L61.91 10.47L61.91 10.47Q61.91 9.81 61.93 9.42L61.93 9.42L61.93 9.42Q61.95 9.03 62.03 8.72L62.03 8.72L62.03 8.72Q62.26 7.88 62.94 7.37L62.94 7.37L62.94 7.37Q63.63 6.86 64.60 6.86L64.60 6.86L64.60 6.86Q65.58 6.86 66.27 7.37L66.27 7.37L66.27 7.37Q66.96 7.88 67.16 8.72L67.16 8.72L67.16 8.72Q67.23 9.03 67.25 9.41L67.25 9.41L67.25 9.41Q67.27 9.79 67.27 10.47L67.27 10.47L67.27 10.47Q67.27 11.19 67.25 11.56L67.25 11.56L67.25 11.56Q67.23 11.93 67.16 12.24L67.16 12.24L67.16 12.24Q66.95 13.09 66.26 13.60L66.26 13.60L66.26 13.60Q65.58 14.11 64.60 14.11L64.60 14.11ZM64.60 13.62L64.60 13.62Q65.41 13.62 65.95 13.18L65.95 13.18L65.95 13.18Q66.50 12.74 66.65 12.03L66.65 12.03L66.65 12.03Q66.70 11.82 66.71 11.39L66.71 11.39L66.71 11.39Q66.72 10.96 66.72 10.49L66.72 10.49L66.72 10.49Q66.72 9.97 66.71 9.55L66.71 9.55L66.71 9.55Q66.70 9.14 66.65 8.95L66.65 8.95L66.65 8.95Q66.51 8.23 65.95 7.79L65.95 7.79L65.95 7.79Q65.39 7.35 64.58 7.35L64.58 7.35L64.58 7.35Q63.78 7.35 63.24 7.79L63.24 7.79L63.24 7.79Q62.69 8.23 62.54 8.95L62.54 8.95L62.54 8.95Q62.45 9.31 62.45 10.49L62.45 10.49L62.45 10.49Q62.45 11.68 62.54 12.03L62.54 12.03L62.54 12.03Q62.69 12.75 63.24 13.19L63.24 13.19L63.24 13.19Q63.78 13.62 64.60 13.62L64.60 13.62ZM69.19 16.80L69.19 16.80Q69.09 16.80 69.09 16.66L69.09 16.66L69.09 16.45L69.09 16.45Q69.09 16.31 69.19 16.31L69.19 16.31L69.29 16.31L69.29 16.31Q69.82 16.30 70.11 16.12L70.11 16.12L70.11 16.12Q70.39 15.95 70.61 15.50L70.61 15.50L70.61 15.50Q70.83 15.05 71.16 14.04L71.16 14.04L71.16 14.04Q71.19 13.99 71.16 13.96L71.16 13.96L68.74 7.13L68.73 7.07L68.73 7.07Q68.73 6.97 68.85 6.97L68.85 6.97L69.12 6.97L69.12 6.97Q69.24 6.97 69.29 7.08L69.29 7.08L71.40 13.19L71.40 13.19Q71.41 13.22 71.44 13.22L71.44 13.22L71.44 13.22Q71.47 13.22 71.48 13.19L71.48 13.19L73.54 7.08L73.54 7.08Q73.58 6.97 73.71 6.97L73.71 6.97L73.98 6.97L73.98 6.97Q74.13 6.97 74.09 7.13L74.09 7.13L71.41 14.78L71.41 14.78Q71.11 15.67 70.84 16.09L70.84 16.09L70.84 16.09Q70.57 16.51 70.23 16.65L70.23 16.65L70.23 16.65Q69.89 16.80 69.29 16.80L69.29 16.80L69.19 16.80ZM80.15 4.34L80.15 4.34Q80.15 4.20 80.29 4.20L80.29 4.20L80.56 4.20L80.56 4.20Q80.70 4.20 80.70 4.34L80.70 4.34L80.70 13.86L80.70 13.86Q80.70 14 80.56 14L80.56 14L80.29 14L80.29 14Q80.15 14 80.15 13.86L80.15 13.86L80.15 13.10L80.15 13.10Q80.15 13.06 80.13 13.06L80.13 13.06L80.13 13.06Q80.11 13.06 80.08 13.09L80.08 13.09L80.08 13.09Q79.77 13.58 79.28 13.85L79.28 13.85L79.28 13.85Q78.78 14.11 78.13 14.11L78.13 14.11L78.13 14.11Q77.18 14.11 76.53 13.61L76.53 13.61L76.53 13.61Q75.88 13.10 75.67 12.26L75.67 12.26L75.67 12.26Q75.59 11.96 75.57 11.59L75.57 11.59L75.57 11.59Q75.54 11.21 75.54 10.50L75.54 10.50L75.54 10.50Q75.54 9.79 75.57 9.41L75.57 9.41L75.57 9.41Q75.59 9.03 75.66 8.72L75.66 8.72L75.66 8.72Q75.87 7.88 76.52 7.37L76.52 7.37L76.52 7.37Q77.17 6.86 78.13 6.86L78.13 6.86L78.13 6.86Q78.78 6.86 79.28 7.13L79.28 7.13L79.28 7.13Q79.79 7.41 80.08 7.88L80.08 7.88L80.08 7.88Q80.11 7.91 80.13 7.91L80.13 7.91L80.13 7.91Q80.15 7.91 80.15 7.87L80.15 7.87L80.15 4.34ZM80.04 12.12L80.04 12.12Q80.11 11.89 80.13 11.59L80.13 11.59L80.13 11.59Q80.15 11.30 80.15 10.50L80.15 10.50L80.15 10.50Q80.15 9.69 80.13 9.39L80.13 9.39L80.13 9.39Q80.11 9.09 80.02 8.83L80.02 8.83L80.02 8.83Q79.90 8.19 79.41 7.77L79.41 7.77L79.41 7.77Q78.92 7.35 78.19 7.35L78.19 7.35L78.19 7.35Q77.45 7.35 76.92 7.76L76.92 7.76L76.92 7.76Q76.38 8.18 76.23 8.82L76.23 8.82L76.23 8.82Q76.15 9.07 76.12 9.38L76.12 9.38L76.12 9.38Q76.09 9.69 76.09 10.47L76.09 10.47L76.09 10.47Q76.09 11.24 76.12 11.54L76.12 11.54L76.12 11.54Q76.15 11.84 76.22 12.12L76.22 12.12L76.22 12.12Q76.34 12.78 76.88 13.20L76.88 13.20L76.88 13.20Q77.42 13.62 78.18 13.62L78.18 13.62L78.18 13.62Q78.93 13.62 79.42 13.20L79.42 13.20L79.42 13.20Q79.90 12.77 80.04 12.12L80.04 12.12Z"></path></g><!----><g data-v-d3f97b9e="" id="8eaa5eb9-4b71-4dc7-aac3-5fe8226aca36" transform="matrix(1.0024365186691284,0,0,1.0024365186691284,-19.555419921875,-5.012451171875)" stroke="none" fill="white"><path d="M49.898 40.806L70.277 94.89V43.793l-20.379-2.987zM45.559 43.479L59.12 78.524 38.245 64.516l-4.87-19.332 12.184-1.705m1.265-2.153l-15.879 2.223 5.585 22.172 26.655 17.888-16.361-42.283zM70.29 5.109l-20.289 5.869-20.29-5.869L19.566 22.68l10.145 17.57L50 37.642l20.29 2.608 10.144-17.57L70.29 5.109zm-1.848 26.283l-9.973-.896-2.24-3.521 1.114-1.725 2.199 3.472 7.882.708 3.897-6.75-3.866-6.696-7.899 1.456L50 35.399l-9.557-17.96-7.899-1.455-3.865 6.696 3.896 6.75 7.883-.708 2.215-3.458 1.111 1.712-2.255 3.521-9.973.896-5.028-8.712 5.06-8.766 9.938 1.831L50 31.541l8.474-15.796 9.938-1.831 5.062 8.766-5.032 8.712zm-8.936-8.223l1.88-3.041 4.066-.393 1.984 3.434-1.984 3.434-3.965-.279-1.981-3.155zm-19.01 0l-1.984 3.154-3.964.279-1.982-3.434 1.982-3.434 3.863.393 2.085 3.042z"></path></g><!----><g data-v-d3f97b9e="" id="354e710a-4318-4f14-8918-a1aa85ded99d" fill="white" transform="matrix(1.5981377363204956,0,0,1.5981377363204956,79.13018798828125,53.4638671875)"><path d="M4.31 14.13L4.31 14.13Q3.37 14.13 2.67 13.76L2.67 13.76L2.67 13.76Q1.96 13.38 1.57 12.71L1.57 12.71L1.57 12.71Q1.18 12.04 1.18 11.16L1.18 11.16L1.18 7.03L1.18 7.03Q1.18 6.16 1.57 5.49L1.57 5.49L1.57 5.49Q1.96 4.82 2.67 4.45L2.67 4.45L2.67 4.45Q3.37 4.09 4.31 4.09L4.31 4.09L4.31 4.09Q5.24 4.09 5.94 4.45L5.94 4.45L5.94 4.45Q6.65 4.82 7.04 5.48L7.04 5.48L7.04 5.48Q7.43 6.15 7.43 7.01L7.43 7.01L7.43 7.03L7.43 7.03Q7.43 7.17 7.29 7.17L7.29 7.17L7.03 7.18L7.03 7.18Q6.89 7.18 6.89 7.10L6.89 7.10L6.89 7.01L6.89 7.01Q6.89 5.92 6.17 5.25L6.17 5.25L6.17 5.25Q5.46 4.58 4.31 4.58L4.31 4.58L4.31 4.58Q3.14 4.58 2.43 5.25L2.43 5.25L2.43 5.25Q1.72 5.92 1.72 7.01L1.72 7.01L1.72 11.19L1.72 11.19Q1.72 12.28 2.43 12.96L2.43 12.96L2.43 12.96Q3.14 13.64 4.31 13.64L4.31 13.64L4.31 13.64Q5.46 13.64 6.17 12.96L6.17 12.96L6.17 12.96Q6.89 12.28 6.89 11.19L6.89 11.19L6.89 11.16L6.89 11.16Q6.89 11.03 7.03 11.03L7.03 11.03L7.29 11.05L7.29 11.05Q7.43 11.05 7.43 11.10L7.43 11.10L7.43 11.17L7.43 11.17Q7.43 12.04 7.04 12.71L7.04 12.71L7.04 12.71Q6.65 13.38 5.94 13.76L5.94 13.76L5.94 13.76Q5.24 14.13 4.31 14.13L4.31 14.13ZM12.82 14.11L12.82 14.11Q11.89 14.11 11.16 13.72L11.16 13.72L11.16 13.72Q10.44 13.33 10.05 12.62L10.05 12.62L10.05 12.62Q9.66 11.91 9.66 10.99L9.66 10.99L9.66 7.22L9.66 7.22Q9.66 6.30 10.05 5.59L10.05 5.59L10.05 5.59Q10.44 4.87 11.16 4.48L11.16 4.48L11.16 4.48Q11.89 4.09 12.82 4.09L12.82 4.09L12.82 4.09Q13.78 4.09 14.50 4.48L14.50 4.48L14.50 4.48Q15.22 4.87 15.62 5.59L15.62 5.59L15.62 5.59Q16.02 6.30 16.02 7.22L16.02 7.22L16.02 10.99L16.02 10.99Q16.02 11.91 15.62 12.62L15.62 12.62L15.62 12.62Q15.22 13.33 14.50 13.72L14.50 13.72L14.50 13.72Q13.78 14.11 12.82 14.11L12.82 14.11ZM12.82 13.62L12.82 13.62Q14.01 13.62 14.74 12.91L14.74 12.91L14.74 12.91Q15.47 12.19 15.47 11.02L15.47 11.02L15.47 7.21L15.47 7.21Q15.47 6.02 14.74 5.30L14.74 5.30L14.74 5.30Q14.01 4.58 12.82 4.58L12.82 4.58L12.82 4.58Q11.65 4.58 10.93 5.30L10.93 5.30L10.93 5.30Q10.21 6.02 10.21 7.21L10.21 7.21L10.21 11.02L10.21 11.02Q10.21 12.19 10.93 12.91L10.93 12.91L10.93 12.91Q11.65 13.62 12.82 13.62L12.82 13.62ZM18.86 14L18.86 14Q18.72 14 18.72 13.86L18.72 13.86L18.72 4.34L18.72 4.34Q18.72 4.20 18.86 4.20L18.86 4.20L19.15 4.20L19.15 4.20Q19.25 4.20 19.32 4.30L19.32 4.30L22.13 8.72L22.13 8.72Q22.15 8.74 22.18 8.74L22.18 8.74L22.18 8.74Q22.20 8.74 22.22 8.72L22.22 8.72L25.07 4.30L25.07 4.30Q25.14 4.20 25.24 4.20L25.24 4.20L25.52 4.20L25.52 4.20Q25.66 4.20 25.66 4.34L25.66 4.34L25.66 13.86L25.66 13.86Q25.66 14 25.52 14L25.52 14L25.26 14L25.26 14Q25.12 14 25.12 13.86L25.12 13.86L25.12 5.31L25.12 5.31Q25.12 5.26 25.09 5.26L25.09 5.26L25.09 5.26Q25.06 5.25 25.05 5.29L25.05 5.29L22.44 9.37L22.44 9.37Q22.37 9.46 22.27 9.46L22.27 9.46L22.13 9.46L22.13 9.46Q22.04 9.46 21.97 9.37L21.97 9.37L19.33 5.29L19.33 5.29Q19.32 5.25 19.29 5.26L19.29 5.26L19.29 5.26Q19.26 5.26 19.26 5.31L19.26 5.31L19.26 13.86L19.26 13.86Q19.26 14 19.12 14L19.12 14L18.86 14ZM32.28 4.17L32.28 4.17Q33.45 4.17 34.15 4.89L34.15 4.89L34.15 4.89Q34.86 5.61 34.86 6.79L34.86 6.79L34.86 6.79Q34.86 7.97 34.15 8.67L34.15 8.67L34.15 8.67Q33.43 9.38 32.27 9.38L32.27 9.38L29.20 9.38L29.20 9.38Q29.15 9.38 29.15 9.44L29.15 9.44L29.15 13.86L29.15 13.86Q29.15 14 29.01 14L29.01 14L28.74 14L28.74 14Q28.60 14 28.60 13.86L28.60 13.86L28.60 4.31L28.60 4.31Q28.60 4.17 28.74 4.17L28.74 4.17L32.28 4.17ZM32.26 8.90L32.26 8.90Q33.18 8.90 33.75 8.32L33.75 8.32L33.75 8.32Q34.31 7.74 34.31 6.80L34.31 6.80L34.31 6.80Q34.31 5.84 33.75 5.26L33.75 5.26L33.75 5.26Q33.18 4.68 32.26 4.68L32.26 4.68L29.20 4.68L29.20 4.68Q29.15 4.68 29.15 4.73L29.15 4.73L29.15 8.85L29.15 8.85Q29.15 8.90 29.20 8.90L29.20 8.90L32.26 8.90ZM40.03 14.11L40.03 14.11Q39.09 14.11 38.37 13.73L38.37 13.73L38.37 13.73Q37.65 13.36 37.25 12.66L37.25 12.66L37.25 12.66Q36.85 11.97 36.85 11.07L36.85 11.07L36.85 4.34L36.85 4.34Q36.85 4.20 36.99 4.20L36.99 4.20L37.25 4.20L37.25 4.20Q37.39 4.20 37.39 4.34L37.39 4.34L37.39 11.12L37.39 11.12Q37.39 12.24 38.12 12.93L38.12 12.93L38.12 12.93Q38.84 13.62 40.03 13.62L40.03 13.62L40.03 13.62Q41.22 13.62 41.94 12.93L41.94 12.93L41.94 12.93Q42.67 12.24 42.67 11.12L42.67 11.12L42.67 4.34L42.67 4.34Q42.67 4.20 42.81 4.20L42.81 4.20L43.08 4.20L43.08 4.20Q43.22 4.20 43.22 4.34L43.22 4.34L43.22 11.07L43.22 11.07Q43.22 11.97 42.82 12.66L42.82 12.66L42.82 12.66Q42.42 13.36 41.70 13.73L41.70 13.73L41.70 13.73Q40.98 14.11 40.03 14.11L40.03 14.11ZM51.63 4.20L51.63 4.20Q51.77 4.20 51.77 4.34L51.77 4.34L51.77 4.55L51.77 4.55Q51.77 4.69 51.63 4.69L51.63 4.69L48.82 4.69L48.82 4.69Q48.76 4.69 48.76 4.75L48.76 4.75L48.76 13.86L48.76 13.86Q48.76 14 48.62 14L48.62 14L48.36 14L48.36 14Q48.22 14 48.22 13.86L48.22 13.86L48.22 4.75L48.22 4.75Q48.22 4.69 48.16 4.69L48.16 4.69L45.46 4.69L45.46 4.69Q45.32 4.69 45.32 4.55L45.32 4.55L45.32 4.34L45.32 4.34Q45.32 4.20 45.46 4.20L45.46 4.20L51.63 4.20ZM60.16 4.55L60.16 4.55Q60.16 4.69 60.02 4.69L60.02 4.69L54.61 4.69L54.61 4.69Q54.56 4.69 54.56 4.75L54.56 4.75L54.56 8.78L54.56 8.78Q54.56 8.83 54.61 8.83L54.61 8.83L58.48 8.83L58.48 8.83Q58.62 8.83 58.62 8.97L58.62 8.97L58.62 9.20L58.62 9.20Q58.62 9.34 58.48 9.34L58.48 9.34L54.61 9.34L54.61 9.34Q54.56 9.34 54.56 9.39L54.56 9.39L54.56 13.45L54.56 13.45Q54.56 13.51 54.61 13.51L54.61 13.51L60.02 13.51L60.02 13.51Q60.16 13.51 60.16 13.65L60.16 13.65L60.16 13.86L60.16 13.86Q60.16 14 60.02 14L60.02 14L54.15 14L54.15 14Q54.01 14 54.01 13.86L54.01 13.86L54.01 4.34L54.01 4.34Q54.01 4.20 54.15 4.20L54.15 4.20L60.02 4.20L60.02 4.20Q60.16 4.20 60.16 4.34L60.16 4.34L60.16 4.55ZM68.50 14L68.50 14Q68.38 14 68.33 13.90L68.33 13.90L66.12 9.34L66.12 9.34Q66.11 9.30 66.07 9.30L66.07 9.30L63.22 9.30L63.22 9.30Q63.17 9.30 63.17 9.35L63.17 9.35L63.17 13.86L63.17 13.86Q63.17 14 63.03 14L63.03 14L62.76 14L62.76 14Q62.62 14 62.62 13.86L62.62 13.86L62.62 4.31L62.62 4.31Q62.62 4.17 62.76 4.17L62.76 4.17L66.19 4.17L66.19 4.17Q67.34 4.17 68.05 4.89L68.05 4.89L68.05 4.89Q68.75 5.60 68.75 6.76L68.75 6.76L68.75 6.76Q68.75 7.76 68.20 8.43L68.20 8.43L68.20 8.43Q67.65 9.10 66.71 9.25L66.71 9.25L66.71 9.25Q66.64 9.28 66.67 9.32L66.67 9.32L68.85 13.83L68.85 13.83Q68.87 13.86 68.87 13.90L68.87 13.90L68.87 13.90Q68.87 14 68.75 14L68.75 14L68.50 14ZM63.22 4.68L63.22 4.68Q63.17 4.68 63.17 4.73L63.17 4.73L63.17 8.76L63.17 8.76Q63.17 8.82 63.22 8.82L63.22 8.82L66.18 8.82L66.18 8.82Q67.09 8.82 67.65 8.25L67.65 8.25L67.65 8.25Q68.21 7.67 68.21 6.76L68.21 6.76L68.21 6.76Q68.21 5.82 67.65 5.25L67.65 5.25L67.65 5.25Q67.09 4.68 66.18 4.68L66.18 4.68L63.22 4.68ZM76.61 14.11L76.61 14.11Q75.11 14.11 74.23 13.44L74.23 13.44L74.23 13.44Q73.36 12.77 73.36 11.63L73.36 11.63L73.36 11.14L73.36 11.14Q73.36 11.00 73.50 11.00L73.50 11.00L73.74 11.00L73.74 11.00Q73.88 11.00 73.88 11.14L73.88 11.14L73.88 11.59L73.88 11.59Q73.88 12.50 74.63 13.06L74.63 13.06L74.63 13.06Q75.38 13.62 76.65 13.62L76.65 13.62L76.65 13.62Q77.88 13.62 78.54 13.10L78.54 13.10L78.54 13.10Q79.20 12.59 79.20 11.69L79.20 11.69L79.20 11.69Q79.20 11.13 78.92 10.72L78.92 10.72L78.92 10.72Q78.64 10.32 78.05 9.96L78.05 9.96L78.05 9.96Q77.46 9.60 76.38 9.14L76.38 9.14L76.38 9.14Q75.29 8.68 74.74 8.37L74.74 8.37L74.74 8.37Q74.19 8.06 73.86 7.60L73.86 7.60L73.86 7.60Q73.54 7.14 73.54 6.43L73.54 6.43L73.54 6.43Q73.54 5.29 74.31 4.69L74.31 4.69L74.31 4.69Q75.07 4.09 76.45 4.09L76.45 4.09L76.45 4.09Q77.97 4.09 78.81 4.77L78.81 4.77L78.81 4.77Q79.65 5.45 79.65 6.59L79.65 6.59L79.65 6.93L79.65 6.93Q79.65 7.07 79.51 7.07L79.51 7.07L79.24 7.07L79.24 7.07Q79.10 7.07 79.10 6.93L79.10 6.93L79.10 6.64L79.10 6.64Q79.10 5.70 78.40 5.14L78.40 5.14L78.40 5.14Q77.70 4.58 76.43 4.58L76.43 4.58L76.43 4.58Q75.29 4.58 74.68 5.05L74.68 5.05L74.68 5.05Q74.07 5.52 74.07 6.40L74.07 6.40L74.07 6.40Q74.07 6.99 74.35 7.35L74.35 7.35L74.35 7.35Q74.62 7.71 75.13 7.99L75.13 7.99L75.13 7.99Q75.64 8.26 76.71 8.69L76.71 8.69L76.71 8.69Q77.76 9.13 78.40 9.53L78.40 9.53L78.40 9.53Q79.04 9.93 79.39 10.44L79.39 10.44L79.39 10.44Q79.74 10.95 79.74 11.65L79.74 11.65L79.74 11.65Q79.74 12.77 78.92 13.44L78.92 13.44L78.92 13.44Q78.11 14.11 76.61 14.11L76.61 14.11ZM84.92 14.13L84.92 14.13Q83.99 14.13 83.28 13.76L83.28 13.76L83.28 13.76Q82.57 13.38 82.18 12.71L82.18 12.71L82.18 12.71Q81.79 12.04 81.79 11.16L81.79 11.16L81.79 7.03L81.79 7.03Q81.79 6.16 82.18 5.49L82.18 5.49L82.18 5.49Q82.57 4.82 83.28 4.45L83.28 4.45L83.28 4.45Q83.99 4.09 84.92 4.09L84.92 4.09L84.92 4.09Q85.85 4.09 86.56 4.45L86.56 4.45L86.56 4.45Q87.26 4.82 87.65 5.48L87.65 5.48L87.65 5.48Q88.05 6.15 88.05 7.01L88.05 7.01L88.05 7.03L88.05 7.03Q88.05 7.17 87.91 7.17L87.91 7.17L87.64 7.18L87.64 7.18Q87.50 7.18 87.50 7.10L87.50 7.10L87.50 7.01L87.50 7.01Q87.50 5.92 86.79 5.25L86.79 5.25L86.79 5.25Q86.07 4.58 84.92 4.58L84.92 4.58L84.92 4.58Q83.75 4.58 83.04 5.25L83.04 5.25L83.04 5.25Q82.33 5.92 82.33 7.01L82.33 7.01L82.33 11.19L82.33 11.19Q82.33 12.28 83.04 12.96L83.04 12.96L83.04 12.96Q83.75 13.64 84.92 13.64L84.92 13.64L84.92 13.64Q86.07 13.64 86.79 12.96L86.79 12.96L86.79 12.96Q87.50 12.28 87.50 11.19L87.50 11.19L87.50 11.16L87.50 11.16Q87.50 11.03 87.64 11.03L87.64 11.03L87.91 11.05L87.91 11.05Q88.05 11.05 88.05 11.10L88.05 11.10L88.05 11.17L88.05 11.17Q88.05 12.04 87.65 12.71L87.65 12.71L87.65 12.71Q87.26 13.38 86.56 13.76L86.56 13.76L86.56 13.76Q85.85 14.13 84.92 14.13L84.92 14.13ZM90.76 14L90.76 14Q90.62 14 90.62 13.86L90.62 13.86L90.62 4.34L90.62 4.34Q90.62 4.20 90.76 4.20L90.76 4.20L91.03 4.20L91.03 4.20Q91.17 4.20 91.17 4.34L91.17 4.34L91.17 13.86L91.17 13.86Q91.17 14 91.03 14L91.03 14L90.76 14ZM100.37 4.55L100.37 4.55Q100.37 4.69 100.23 4.69L100.23 4.69L94.82 4.69L94.82 4.69Q94.77 4.69 94.77 4.75L94.77 4.75L94.77 8.78L94.77 8.78Q94.77 8.83 94.82 8.83L94.82 8.83L98.69 8.83L98.69 8.83Q98.83 8.83 98.83 8.97L98.83 8.97L98.83 9.20L98.83 9.20Q98.83 9.34 98.69 9.34L98.69 9.34L94.82 9.34L94.82 9.34Q94.77 9.34 94.77 9.39L94.77 9.39L94.77 13.45L94.77 13.45Q94.77 13.51 94.82 13.51L94.82 13.51L100.23 13.51L100.23 13.51Q100.37 13.51 100.37 13.65L100.37 13.65L100.37 13.86L100.37 13.86Q100.37 14 100.23 14L100.23 14L94.36 14L94.36 14Q94.22 14 94.22 13.86L94.22 13.86L94.22 4.34L94.22 4.34Q94.22 4.20 94.36 4.20L94.36 4.20L100.23 4.20L100.23 4.20Q100.37 4.20 100.37 4.34L100.37 4.34L100.37 4.55ZM102.97 14L102.97 14Q102.83 14 102.83 13.86L102.83 13.86L102.83 4.34L102.83 4.34Q102.83 4.20 102.97 4.20L102.97 4.20L103.25 4.20L103.25 4.20Q103.35 4.20 103.42 4.30L103.42 4.30L108.70 12.84L108.70 12.84Q108.71 12.88 108.74 12.87L108.74 12.87L108.74 12.87Q108.77 12.87 108.77 12.82L108.77 12.82L108.77 4.34L108.77 4.34Q108.77 4.20 108.91 4.20L108.91 4.20L109.17 4.20L109.17 4.20Q109.31 4.20 109.31 4.34L109.31 4.34L109.31 13.86L109.31 13.86Q109.31 14 109.17 14L109.17 14L108.88 14L108.88 14Q108.78 14 108.71 13.90L108.71 13.90L103.45 5.35L103.45 5.35Q103.43 5.31 103.40 5.31L103.40 5.31L103.40 5.31Q103.38 5.32 103.38 5.36L103.38 5.36L103.38 13.86L103.38 13.86Q103.38 14 103.24 14L103.24 14L102.97 14ZM115.14 14.13L115.14 14.13Q114.20 14.13 113.49 13.76L113.49 13.76L113.49 13.76Q112.78 13.38 112.39 12.71L112.39 12.71L112.39 12.71Q112 12.04 112 11.16L112 11.16L112 7.03L112 7.03Q112 6.16 112.39 5.49L112.39 5.49L112.39 5.49Q112.78 4.82 113.49 4.45L113.49 4.45L113.49 4.45Q114.20 4.09 115.14 4.09L115.14 4.09L115.14 4.09Q116.06 4.09 116.77 4.45L116.77 4.45L116.77 4.45Q117.47 4.82 117.87 5.48L117.87 5.48L117.87 5.48Q118.26 6.15 118.26 7.01L118.26 7.01L118.26 7.03L118.26 7.03Q118.26 7.17 118.12 7.17L118.12 7.17L117.85 7.18L117.85 7.18Q117.71 7.18 117.71 7.10L117.71 7.10L117.71 7.01L117.71 7.01Q117.71 5.92 117.00 5.25L117.00 5.25L117.00 5.25Q116.28 4.58 115.14 4.58L115.14 4.58L115.14 4.58Q113.96 4.58 113.25 5.25L113.25 5.25L113.25 5.25Q112.55 5.92 112.55 7.01L112.55 7.01L112.55 11.19L112.55 11.19Q112.55 12.28 113.25 12.96L113.25 12.96L113.25 12.96Q113.96 13.64 115.14 13.64L115.14 13.64L115.14 13.64Q116.28 13.64 117.00 12.96L117.00 12.96L117.00 12.96Q117.71 12.28 117.71 11.19L117.71 11.19L117.71 11.16L117.71 11.16Q117.71 11.03 117.85 11.03L117.85 11.03L118.12 11.05L118.12 11.05Q118.26 11.05 118.26 11.10L118.26 11.10L118.26 11.17L118.26 11.17Q118.26 12.04 117.87 12.71L117.87 12.71L117.87 12.71Q117.47 13.38 116.77 13.76L116.77 13.76L116.77 13.76Q116.06 14.13 115.14 14.13L115.14 14.13ZM126.98 4.55L126.98 4.55Q126.98 4.69 126.84 4.69L126.84 4.69L121.44 4.69L121.44 4.69Q121.38 4.69 121.38 4.75L121.38 4.75L121.38 8.78L121.38 8.78Q121.38 8.83 121.44 8.83L121.44 8.83L125.30 8.83L125.30 8.83Q125.44 8.83 125.44 8.97L125.44 8.97L125.44 9.20L125.44 9.20Q125.44 9.34 125.30 9.34L125.30 9.34L121.44 9.34L121.44 9.34Q121.38 9.34 121.38 9.39L121.38 9.39L121.38 13.45L121.38 13.45Q121.38 13.51 121.44 13.51L121.44 13.51L126.84 13.51L126.84 13.51Q126.98 13.51 126.98 13.65L126.98 13.65L126.98 13.86L126.98 13.86Q126.98 14 126.84 14L126.84 14L120.97 14L120.97 14Q120.83 14 120.83 13.86L120.83 13.86L120.83 4.34L120.83 4.34Q120.83 4.20 120.97 4.20L120.97 4.20L126.84 4.20L126.84 4.20Q126.98 4.20 126.98 4.34L126.98 4.34L126.98 4.55ZM134.88 14.11L134.88 14.11Q133.38 14.11 132.50 13.44L132.50 13.44L132.50 13.44Q131.63 12.77 131.63 11.63L131.63 11.63L131.63 11.14L131.63 11.14Q131.63 11.00 131.77 11.00L131.77 11.00L132.01 11.00L132.01 11.00Q132.15 11.00 132.15 11.14L132.15 11.14L132.15 11.59L132.15 11.59Q132.15 12.50 132.89 13.06L132.89 13.06L132.89 13.06Q133.64 13.62 134.92 13.62L134.92 13.62L134.92 13.62Q136.15 13.62 136.81 13.10L136.81 13.10L136.81 13.10Q137.47 12.59 137.47 11.69L137.47 11.69L137.47 11.69Q137.47 11.13 137.19 10.72L137.19 10.72L137.19 10.72Q136.91 10.32 136.32 9.96L136.32 9.96L136.32 9.96Q135.73 9.60 134.65 9.14L134.65 9.14L134.65 9.14Q133.56 8.68 133.01 8.37L133.01 8.37L133.01 8.37Q132.45 8.06 132.13 7.60L132.13 7.60L132.13 7.60Q131.81 7.14 131.81 6.43L131.81 6.43L131.81 6.43Q131.81 5.29 132.57 4.69L132.57 4.69L132.57 4.69Q133.34 4.09 134.72 4.09L134.72 4.09L134.72 4.09Q136.23 4.09 137.07 4.77L137.07 4.77L137.07 4.77Q137.91 5.45 137.91 6.59L137.91 6.59L137.91 6.93L137.91 6.93Q137.91 7.07 137.77 7.07L137.77 7.07L137.51 7.07L137.51 7.07Q137.37 7.07 137.37 6.93L137.37 6.93L137.37 6.64L137.37 6.64Q137.37 5.70 136.67 5.14L136.67 5.14L136.67 5.14Q135.97 4.58 134.69 4.58L134.69 4.58L134.69 4.58Q133.56 4.58 132.95 5.05L132.95 5.05L132.95 5.05Q132.34 5.52 132.34 6.40L132.34 6.40L132.34 6.40Q132.34 6.99 132.61 7.35L132.61 7.35L132.61 7.35Q132.89 7.71 133.40 7.99L133.40 7.99L133.40 7.99Q133.91 8.26 134.97 8.69L134.97 8.69L134.97 8.69Q136.02 9.13 136.67 9.53L136.67 9.53L136.67 9.53Q137.31 9.93 137.66 10.44L137.66 10.44L137.66 10.44Q138.01 10.95 138.01 11.65L138.01 11.65L138.01 11.65Q138.01 12.77 137.19 13.44L137.19 13.44L137.19 13.44Q136.37 14.11 134.88 14.11L134.88 14.11ZM145.89 4.20L145.89 4.20Q146.03 4.20 146.03 4.34L146.03 4.34L146.03 4.55L146.03 4.55Q146.03 4.69 145.89 4.69L145.89 4.69L143.08 4.69L143.08 4.69Q143.02 4.69 143.02 4.75L143.02 4.75L143.02 13.86L143.02 13.86Q143.02 14 142.88 14L142.88 14L142.62 14L142.62 14Q142.48 14 142.48 13.86L142.48 13.86L142.48 4.75L142.48 4.75Q142.48 4.69 142.42 4.69L142.42 4.69L139.72 4.69L139.72 4.69Q139.58 4.69 139.58 4.55L139.58 4.55L139.58 4.34L139.58 4.34Q139.58 4.20 139.72 4.20L139.72 4.20L145.89 4.20ZM151.34 14.11L151.34 14.11Q150.40 14.11 149.68 13.73L149.68 13.73L149.68 13.73Q148.96 13.36 148.56 12.66L148.56 12.66L148.56 12.66Q148.16 11.97 148.16 11.07L148.16 11.07L148.16 4.34L148.16 4.34Q148.16 4.20 148.30 4.20L148.30 4.20L148.57 4.20L148.57 4.20Q148.71 4.20 148.71 4.34L148.71 4.34L148.71 11.12L148.71 11.12Q148.71 12.24 149.43 12.93L149.43 12.93L149.43 12.93Q150.15 13.62 151.34 13.62L151.34 13.62L151.34 13.62Q152.53 13.62 153.26 12.93L153.26 12.93L153.26 12.93Q153.99 12.24 153.99 11.12L153.99 11.12L153.99 4.34L153.99 4.34Q153.99 4.20 154.13 4.20L154.13 4.20L154.39 4.20L154.39 4.20Q154.53 4.20 154.53 4.34L154.53 4.34L154.53 11.07L154.53 11.07Q154.53 11.97 154.13 12.66L154.13 12.66L154.13 12.66Q153.73 13.36 153.01 13.73L153.01 13.73L153.01 13.73Q152.29 14.11 151.34 14.11L151.34 14.11ZM157.60 14L157.60 14Q157.46 14 157.46 13.86L157.46 13.86L157.46 4.34L157.46 4.34Q157.46 4.20 157.60 4.20L157.60 4.20L160.80 4.20L160.80 4.20Q162.09 4.20 162.85 4.89L162.85 4.89L162.85 4.89Q163.60 5.59 163.60 6.79L163.60 6.79L163.60 11.41L163.60 11.41Q163.60 12.61 162.85 13.31L162.85 13.31L162.85 13.31Q162.09 14 160.80 14L160.80 14L157.60 14ZM158.00 13.45L158.00 13.45Q158.00 13.51 158.06 13.51L158.06 13.51L160.83 13.51L160.83 13.51Q161.87 13.51 162.46 12.94L162.46 12.94L162.46 12.94Q163.06 12.36 163.06 11.38L163.06 11.38L163.06 6.83L163.06 6.83Q163.06 5.84 162.46 5.26L162.46 5.26L162.46 5.26Q161.87 4.69 160.83 4.69L160.83 4.69L158.06 4.69L158.06 4.69Q158.00 4.69 158.00 4.75L158.00 4.75L158.00 13.45ZM172.26 4.55L172.26 4.55Q172.26 4.69 172.12 4.69L172.12 4.69L166.71 4.69L166.71 4.69Q166.66 4.69 166.66 4.75L166.66 4.75L166.66 8.78L166.66 8.78Q166.66 8.83 166.71 8.83L166.71 8.83L170.58 8.83L170.58 8.83Q170.72 8.83 170.72 8.97L170.72 8.97L170.72 9.20L170.72 9.20Q170.72 9.34 170.58 9.34L170.58 9.34L166.71 9.34L166.71 9.34Q166.66 9.34 166.66 9.39L166.66 9.39L166.66 13.45L166.66 13.45Q166.66 13.51 166.71 13.51L166.71 13.51L172.12 13.51L172.12 13.51Q172.26 13.51 172.26 13.65L172.26 13.65L172.26 13.86L172.26 13.86Q172.26 14 172.12 14L172.12 14L166.25 14L166.25 14Q166.11 14 166.11 13.86L166.11 13.86L166.11 4.34L166.11 4.34Q166.11 4.20 166.25 4.20L166.25 4.20L172.12 4.20L172.12 4.20Q172.26 4.20 172.26 4.34L172.26 4.34L172.26 4.55ZM174.86 14L174.86 14Q174.72 14 174.72 13.86L174.72 13.86L174.72 4.34L174.72 4.34Q174.72 4.20 174.86 4.20L174.86 4.20L175.14 4.20L175.14 4.20Q175.24 4.20 175.31 4.30L175.31 4.30L180.59 12.84L180.59 12.84Q180.60 12.88 180.63 12.87L180.63 12.87L180.63 12.87Q180.66 12.87 180.66 12.82L180.66 12.82L180.66 4.34L180.66 4.34Q180.66 4.20 180.80 4.20L180.80 4.20L181.06 4.20L181.06 4.20Q181.20 4.20 181.20 4.34L181.20 4.34L181.20 13.86L181.20 13.86Q181.20 14 181.06 14L181.06 14L180.77 14L180.77 14Q180.67 14 180.60 13.90L180.60 13.90L175.34 5.35L175.34 5.35Q175.32 5.31 175.29 5.31L175.29 5.31L175.29 5.31Q175.27 5.32 175.27 5.36L175.27 5.36L175.27 13.86L175.27 13.86Q175.27 14 175.13 14L175.13 14L174.86 14ZM189.73 4.20L189.73 4.20Q189.87 4.20 189.87 4.34L189.87 4.34L189.87 4.55L189.87 4.55Q189.87 4.69 189.73 4.69L189.73 4.69L186.91 4.69L186.91 4.69Q186.86 4.69 186.86 4.75L186.86 4.75L186.86 13.86L186.86 13.86Q186.86 14 186.72 14L186.72 14L186.45 14L186.45 14Q186.31 14 186.31 13.86L186.31 13.86L186.31 4.75L186.31 4.75Q186.31 4.69 186.26 4.69L186.26 4.69L183.55 4.69L183.55 4.69Q183.41 4.69 183.41 4.55L183.41 4.55L183.41 4.34L183.41 4.34Q183.41 4.20 183.55 4.20L183.55 4.20L189.73 4.20Z"></path></g></svg>